<svg width="18" height="20" viewBox="0 0 18 20" fill="none" xmlns="http://www.w3.org/2000/svg">
<path d="M16.6576 15.1C16.2251 16.0575 16.0188 16.485 15.4613 17.3313C14.6851 18.5125 13.5913 19.985 12.2351 19.9975C11.0301 20.0088 10.7201 19.2138 9.08505 19.2225C7.45005 19.2313 7.10755 20.0113 5.90255 20C4.5463 19.9875 3.51005 18.6588 2.73255 17.4763C0.56255 14.1713 0.335051 10.2938 1.6738 8.2325C2.62505 6.76625 4.1263 5.91 5.5388 5.91C6.9763 5.91 7.8788 6.6975 9.06755 6.6975C10.2201 6.6975 10.9226 5.90875 12.5851 5.90875C13.8413 5.90875 15.1726 6.5925 16.1201 7.77375C13.0138 9.4775 13.5188 13.9138 16.6576 15.1Z" fill="#FDCC0C"/>
<path d="M1.84294 15.1C2.27544 16.0575 2.48169 16.485 3.03919 17.3313C3.81544 18.5125 4.90919 19.985 6.26544 19.9975C7.47044 20.0088 7.78044 19.2138 9.41544 19.2225C11.0504 19.2313 11.3929 20.0113 12.5979 20C13.9542 19.9875 14.9904 18.6588 15.7679 17.4763C17.9379 14.1713 18.1654 10.2938 16.8267 8.2325C15.8754 6.76625 14.3742 5.91 12.9617 5.91C11.5242 5.91 10.6217 6.6975 9.43294 6.6975C8.28044 6.6975 7.57794 5.90875 5.91544 5.90875C4.65919 5.90875 3.32794 6.5925 2.38044 7.77375C5.48669 9.4775 4.98169 13.9138 1.84294 15.1Z" fill="#FDCC0C"/>
<path d="M12.005 3.37375C12.6875 2.49875 13.205 1.2625 13.0163 0C11.9025 0.07625 10.6 0.785 9.83876 1.70875C9.14876 2.5475 8.57876 3.79125 8.80001 5C10.0163 5.0375 11.2738 4.31125 12.005 3.37375Z" fill="#FDCC0C"/>
</svg>
