<svg width="17" height="20" viewBox="0 0 17 20" fill="none" xmlns="http://www.w3.org/2000/svg">
<path d="M10.905 7.86625C10.905 7.86625 11.8375 2.38125 8.03246 0C7.91781 1.90607 6.99679 3.6731 5.49996 4.85875C3.87496 6.2875 0.818709 9.5 0.851209 12.925C0.827394 15.9116 2.4991 18.6534 5.16496 20C5.25928 18.6645 5.88734 17.4233 6.90746 16.5562C7.77184 15.8915 8.33301 14.9074 8.46496 13.825C10.7406 15.0348 12.2124 17.3521 12.34 19.9263V19.9425C14.8551 18.7904 16.5109 16.3241 16.625 13.56C16.895 10.3425 15.1325 5.9675 13.5687 4.5375C12.9783 5.85556 12.0615 7.00126 10.905 7.86625Z" fill="#FF0000"/>
</svg>
