<svg width="32" height="32" viewBox="0 0 32 32" fill="none" xmlns="http://www.w3.org/2000/svg">
<path d="M13.3333 10.6666L9 15C9.41333 15.16 9.74667 15.36 10.0267 15.52C10.52 15.8266 10.8133 16 11.56 16C12.3067 16 12.6 15.8266 13.0933 15.52C13.7067 15.16 14.5333 14.6666 16.0133 14.6666C17.4933 14.6666 18.32 15.16 18.92 15.52C19.4133 15.8133 19.72 16 20.4533 16C21.1867 16 21.4933 15.8266 21.9867 15.52C22.1467 15.4266 22.3333 15.32 22.5333 15.2133L13.9733 6.66663C11.9067 4.59997 10 3.98663 6.66667 3.99997V7.3333C9.09333 7.31997 10.52 7.8533 12 9.3333L13.3333 10.6666ZM29.3333 22H29.3067H29.3333ZM7.13333 20.6666C7.86667 20.6666 8.17333 20.8533 8.66667 21.1466C9.26667 21.5066 10.0933 22 11.5733 22C13.0533 22 13.88 21.5066 14.48 21.1466C14.9733 20.84 15.2667 20.6666 16.0133 20.6666C16.7467 20.6666 17.0533 20.8533 17.5467 21.1466C18.1467 21.5066 18.9733 22 20.4533 22C21.9333 22 22.76 21.5066 23.36 21.1466C23.8533 20.84 24.1467 20.6666 24.8933 20.6666C25.6267 20.6666 25.9333 20.8533 26.4267 21.1466C27.0267 21.5066 27.84 21.9866 29.3067 22V19.3333C28.5733 19.3333 28.2667 19.1466 27.7733 18.8533C27.1733 18.4933 26.3467 18 24.8667 18C23.3867 18 22.56 18.4933 21.96 18.8533C21.4667 19.16 21.16 19.3333 20.4267 19.3333C19.6933 19.3333 19.3867 19.1466 18.8933 18.8533C18.2933 18.4933 17.4667 18 15.9867 18C14.5067 18 13.68 18.4933 13.08 18.8533C12.5867 19.16 12.2933 19.3333 11.5467 19.3333C10.8133 19.3333 10.5067 19.1466 10.0133 18.8533C9.41333 18.4933 8.58667 18 7.10667 18C5.62667 18 4.8 18.4933 4.2 18.8533C3.70667 19.16 3.41333 19.3333 2.66667 19.3333V22C4.14667 22 4.97333 21.5066 5.6 21.1466C6.09333 20.84 6.4 20.6666 7.13333 20.6666ZM24.8933 24C23.4133 24 22.5867 24.4933 21.9867 24.8533C21.4933 25.16 21.1867 25.3333 20.4533 25.3333C19.72 25.3333 19.4133 25.1466 18.92 24.8533C18.32 24.4933 17.4933 24 16.0133 24C14.5333 24 13.7067 24.4933 13.0933 24.8533C12.6 25.16 12.3067 25.3333 11.56 25.3333C10.8133 25.3333 10.52 25.16 10.0267 24.8533C9.42667 24.4933 8.6 24 7.12 24C5.64 24 4.81333 24.4933 4.2 24.8533C3.70667 25.16 3.41333 25.3333 2.66667 25.3333V28C4.14667 28 4.97333 27.5066 5.58667 27.1466C6.08 26.84 6.38667 26.6666 7.12 26.6666C7.85333 26.6666 8.16 26.84 8.65333 27.1466C9.25333 27.5066 10.08 28 11.56 28C13.04 28 13.8667 27.5066 14.48 27.1466C14.9733 26.84 15.2667 26.6666 16.0133 26.6666C16.7467 26.6666 17.0533 26.8533 17.5467 27.1466C18.1467 27.5066 18.9733 28 20.4533 28C21.9333 28 22.7467 27.5066 23.36 27.1466C23.8533 26.84 24.1467 26.6666 24.8933 26.6666C25.6267 26.6666 25.9333 26.8533 26.4267 27.1466C27.0267 27.5066 27.8533 28 29.3333 28V25.3333C28.5867 25.3333 28.2933 25.16 27.8 24.8533C27.2 24.4933 26.3733 24 24.8933 24Z" fill="#FF0101"/>
<path d="M22 10.6667C23.8409 10.6667 25.3333 9.17428 25.3333 7.33333C25.3333 5.49238 23.8409 4 22 4C20.159 4 18.6667 5.49238 18.6667 7.33333C18.6667 9.17428 20.159 10.6667 22 10.6667Z" fill="#FF0101"/>
</svg>
